<?xml version="1.0" standalone="no"?><!DOCTYPE svg PUBLIC "-//W3C//DTD SVG 1.1//EN" "http://www.w3.org/Graphics/SVG/1.1/DTD/svg11.dtd"><svg t="1569417012394" class="icon" viewBox="0 0 1024 1024" version="1.1" xmlns="http://www.w3.org/2000/svg" p-id="4575" xmlns:xlink="http://www.w3.org/1999/xlink" width="200" height="200"><defs><style type="text/css"></style></defs><path d="M768 672s-48 96-256 96-256-96-256-96V336h512z" fill="#AA6E50" p-id="4576"></path><path d="M512 776c-48.14 0-91.81-5.14-129.81-15.27-30.64-8.17-57.71-19.6-80.46-34-39.43-24.9-52.35-50.12-52.89-51.18A8.08 8.08 0 0 1 248 672V336a8 8 0 0 1 8-8h512a8 8 0 0 1 8 8v336a8.08 8.08 0 0 1-0.84 3.58c-0.54 1.06-13.46 26.28-52.89 51.18-22.75 14.37-49.82 25.8-80.46 34-38 10.1-81.67 15.24-129.81 15.24zM264 669.89c3.28 5.4 16.53 24.85 47.49 44.11 33.73 21 95.9 46 200.51 46 186.52 0 240.87-78.28 248-90.1V344H264zM768 672z" fill="#222222" p-id="4577"></path><path d="M624 976h190.9l1.1-33.39C816 810.83 679.89 704 512 704S208 810.83 208 942.61l1.1 33.39H624V768H512" fill="#FFFFFF" p-id="4578"></path><path d="M822.64 984H201.36L200 942.61c0-66.24 32.71-128.4 92.1-175C350.92 721.43 429 696 512 696s161.08 25.43 219.9 71.59c59.39 46.62 92.1 108.78 92.1 175v0.26zM632 968h175.16l0.84-25.52C807.9 815.38 675.16 712 512 712S216.1 815.38 216 942.48l0.84 25.52H616V776H512v-16h120z" p-id="4579"></path><path d="M560 624h-96v90s0 54 48 54 48-54 48-54z" fill="#FFCEBF" p-id="4580"></path><path d="M512 776c-29.09 0-42.87-17.27-49.31-31.75A82.54 82.54 0 0 1 456 714v-98h112v98a82.54 82.54 0 0 1-6.69 30.25C554.87 758.73 541.09 776 512 776z m-40-144v82c0 1.86 0.69 46 40 46 16.69 0 28-7.28 34.69-22.25A67.2 67.2 0 0 0 552 714v-82z" fill="#222222" p-id="4581"></path><path d="M282.15 411.84m-58.15 0a58.15 58.15 0 1 0 116.3 0 58.15 58.15 0 1 0-116.3 0Z" fill="#FFCEBF" p-id="4582"></path><path d="M282.15 478a66.15 66.15 0 1 1 66.15-66.15A66.22 66.22 0 0 1 282.15 478z m0-116.29a50.15 50.15 0 1 0 50.15 50.14 50.2 50.2 0 0 0-50.15-50.15z" fill="#222222" p-id="4583"></path><path d="M741.85 411.84m-58.15 0a58.15 58.15 0 1 0 116.3 0 58.15 58.15 0 1 0-116.3 0Z" fill="#FFCEBF" p-id="4584"></path><path d="M741.85 478A66.15 66.15 0 1 1 808 411.84 66.23 66.23 0 0 1 741.85 478z m0-116.29A50.15 50.15 0 1 0 792 411.84a50.2 50.2 0 0 0-50.15-50.14z" fill="#222222" p-id="4585"></path><path d="M742 312.6l0.84 111.7c0 136.84-104.13 247.77-232.59 247.77S277.69 561.14 277.69 424.3l0.84-111.7S288 96 512 96s230 216.6 230 216.6z" fill="#FFCEBF" p-id="4586"></path><path d="M510.29 680.07c-64.37 0-124.85-26.67-170.29-75.07s-70.31-112.48-70.31-180.7l0.85-112c0.1-2.29 2.8-56.69 33.75-111.86 18.29-32.63 42.68-58.64 72.48-77.32C413.88 99.8 459.38 88 512 88s98 11.8 134.72 35.08c29.54 18.71 53.53 44.74 71.33 77.39 30.08 55.2 31.93 109.62 32 111.91v0.16l0.84 111.7c0 68.28-25 132.45-70.29 180.74s-105.95 75.09-170.31 75.09zM286.53 312.83l-0.84 111.53c0 132.15 100.75 239.71 224.6 239.71S734.88 556.51 734.88 424.3L734 312.76c-0.08-2.16-2.34-54.11-30.32-105.14C666 138.86 601.52 104 512 104c-89.79 0-155 35.06-193.76 104.21-28.41 50.67-31.56 101.79-31.71 104.62z" fill="#222222" p-id="4587"></path><path d="M298.84 469.99a37 21.15 0 1 0 74 0 37 21.15 0 1 0-74 0Z" fill="#FFA096" p-id="4588"></path><path d="M647.73 469.99a37 21.15 0 1 0 74 0 37 21.15 0 1 0-74 0Z" fill="#FFA096" p-id="4589"></path><path d="M407.66 372.19l-8.2 8.21a31.56 31.56 0 0 0-8-3.35v-11.59a8 8 0 0 0-16 0v11.59a31.82 31.82 0 0 0-8 3.34l-8.2-8.2a8 8 0 0 0-11.32 11.32l8.21 8.2a31.72 31.72 0 1 0 54.71 0l8.2-8.2a8 8 0 0 0-11.31-11.32zM672.72 372.19a8 8 0 0 0-11.31 0l-8.21 8.21a31.34 31.34 0 0 0-8-3.35v-11.59a8 8 0 1 0-16 0v11.59a31.56 31.56 0 0 0-8 3.35l-8.2-8.21a8 8 0 0 0-11.31 11.32l8.2 8.2a31.72 31.72 0 1 0 54.72 0l8.2-8.2a8 8 0 0 0-0.09-11.32z" fill="#222222" p-id="4590"></path><path d="M446.85 576.92s21.15 10.57 63.44 10.57 63.43-10.57 63.43-10.57" fill="#FFCEBF" p-id="4591"></path><path d="M510.29 595.49c-43.68 0-66.09-11-67-11.42a8 8 0 0 1 7.13-14.32c0.28 0.13 20.48 9.74 59.89 9.74s59.69-9.65 59.89-9.75a8 8 0 0 1 7.12 14.33c-0.95 0.47-23.32 11.42-67.03 11.42z" fill="#222222" p-id="4592"></path><path d="M768 346.38C768 192.58 665.68 80 512 80S256 192.58 256 346.38c0 0 160 21.32 256-106.55 96 127.87 256 106.55 256 106.55z" fill="#AA6E50" p-id="4593"></path><path d="M741.47 355.74a337 337 0 0 1-67.08-6.85 296.51 296.51 0 0 1-85.8-31.49A265.23 265.23 0 0 1 512 252.83a265.23 265.23 0 0 1-76.59 64.57 296.51 296.51 0 0 1-85.8 31.49c-52.72 10.81-93 5.65-94.67 5.42a8 8 0 0 1-6.94-7.93c0-38.89 6.36-75.66 18.89-109.3 12.37-33.19 30.43-62.48 53.67-87.06a241.6 241.6 0 0 1 83.54-57.41C437 78.93 473.33 72 512 72s75 6.93 107.9 20.61A241.6 241.6 0 0 1 703.44 150c23.24 24.58 41.3 53.87 53.67 87.06C769.64 270.72 776 307.49 776 346.38a8 8 0 0 1-6.94 7.93 224.26 224.26 0 0 1-27.59 1.43z m26.53-9.36z m-503.92-7.29a314.41 314.41 0 0 0 82.86-6C413.73 319.3 467.11 286.3 505.6 235a8 8 0 0 1 12.8 0c38.49 51.27 91.87 84.27 158.66 98.08a314.86 314.86 0 0 0 82.86 6C756.71 190.86 655.67 88 512 88S267.29 190.86 264.08 339.09z" fill="#222222" p-id="4594"></path><path d="M452 828m-20 0a20 20 0 1 0 40 0 20 20 0 1 0-40 0Z" p-id="4595"></path><path d="M572 824m-20 0a20 20 0 1 0 40 0 20 20 0 1 0-40 0Z" p-id="4596"></path><path d="M452 924m-20 0a20 20 0 1 0 40 0 20 20 0 1 0-40 0Z" p-id="4597"></path><path d="M572 920m-20 0a20 20 0 1 0 40 0 20 20 0 1 0-40 0Z" p-id="4598"></path><path d="M1008 840c0 57.44-71.63 56-160 56s-160 1.44-160-56 71.63-104 160-104 160 46.56 160 104z" fill="#FF903E" p-id="4599"></path><path d="M860.68 904h-19c-44.07 0-82.13 0-110.84-7.21C696.63 888.16 680 869.59 680 840c0-30.58 17.94-59.08 50.5-80.25C762 739.28 803.73 728 848 728s86 11.28 117.5 31.75c32.56 21.17 50.5 49.67 50.5 80.25 0 29.59-16.63 48.16-50.84 56.79-27.32 6.89-63.11 7.21-104.48 7.21zM848 888h6.32c43 0 80.15 0 106.92-6.72 27.17-6.85 38.76-19.2 38.76-41.28 0-25-15.35-48.71-43.22-66.83C927.84 754.36 889.21 744 848 744s-79.84 10.36-108.78 29.17C711.35 791.29 696 815 696 840c0 22.08 11.59 34.43 38.76 41.28C761.53 888 798.69 888 841.68 888z" fill="#222222" p-id="4600"></path><path d="M712 80a119.42 119.42 0 0 0-68.42 21.42 144.05 144.05 0 0 0-263.16 0A120 120 0 1 0 252.09 304c8.91 5.11 134.69-48.35 259.91-48 124.14 0.35 247.68 54.56 256 50.16A120 120 0 0 0 712 80z" fill="#FFFFFF" p-id="4601"></path><path d="M766.61 314.41c-5.52 0-14.91-2.8-36.5-9.44C683.82 290.73 597.67 264.24 512 264c-84.78-0.25-171.72 25.07-218.42 38.67-32.79 9.55-39.93 11.46-45.47 8.26A128 128 0 0 1 312 72a127.16 127.16 0 0 1 65.15 17.81 152 152 0 0 1 269.7 0 128 128 0 1 1 124.89 223.42 10.38 10.38 0 0 1-5.13 1.18zM510.78 248H512c88.07 0.25 175.71 27.2 222.79 41.67 13 4 26.37 8.11 30.83 8.68A112 112 0 1 0 648.14 108a8 8 0 0 1-11.87-3.32 136.05 136.05 0 0 0-248.54 0 8 8 0 0 1-11.87 3.32A112 112 0 0 0 200 200a112.45 112.45 0 0 0 54.8 96.32c4.77-0.42 19.76-4.78 34.28-9C336.33 273.55 424.09 248 510.78 248z" p-id="4602"></path><path d="M768 304s-63.25-80-256-80-256 80-256 80v32s63.25-48 256-48 256 48 256 48z" fill="#FFFFFF" p-id="4603"></path><path d="M768 344a8 8 0 0 1-4.84-1.63c-0.12-0.09-16-11.69-54.64-23.14C672.75 308.63 609.63 296 512 296s-160.75 12.63-196.52 23.23c-38.68 11.45-54.52 23-54.67 23.16A8 8 0 0 1 248 336v-32a8 8 0 0 1 1.72-5c0.7-0.87 17.39-21.63 58.41-42.19C345.31 238.21 410.87 216 512 216s166.69 22.21 203.87 40.85c41 20.56 57.71 41.32 58.41 42.19a8 8 0 0 1 1.72 5v32a8 8 0 0 1-4.44 7.17 8.15 8.15 0 0 1-3.56 0.79z m-256-64c148.22 0 221 28 248 42v-15c-5-5.38-21.23-21-52.45-36.45C672 253 609.24 232 512 232c-169.85 0-236.83 63.05-248 75v15c27.05-14 99.78-42 248-42z" p-id="4604"></path><path d="M336 256a8 8 0 0 1-5.66-2.34l-56-56a8 8 0 0 1 11.32-11.32l56 56A8 8 0 0 1 336 256zM688 256a8 8 0 0 1-5.66-13.66l56-56a8 8 0 0 1 11.32 11.32l-56 56A8 8 0 0 1 688 256zM512 232a8 8 0 0 1-8-8V112a8 8 0 0 1 16 0v112a8 8 0 0 1-8 8z" p-id="4605"></path><path d="M944 816v160h-48V816z" fill="#FFCEBF" p-id="4606"></path><path d="M952 984h-64V808h64z m-48-16h32V824h-32z" fill="#222222" p-id="4607"></path><path d="M896 816v160h-48V816z" fill="#FFCEBF" p-id="4608"></path><path d="M904 984h-64V808h64z m-48-16h32V824h-32z" fill="#222222" p-id="4609"></path><path d="M848 816v160h-48V816z" fill="#FFCEBF" p-id="4610"></path><path d="M856 984h-64V808h64z m-48-16h32V824h-32z" fill="#222222" p-id="4611"></path><path d="M800 816v160h-48V816z" fill="#FFCEBF" p-id="4612"></path><path d="M808 984h-64V808h64z m-48-16h32V824h-32z" fill="#222222" p-id="4613"></path><path d="M944 880v96H752v-96" fill="#FFCEBF" p-id="4614"></path><path d="M952 984H744V880h16v88h176v-88h16v104z" fill="#222222" p-id="4615"></path><path d="M848 792a8 8 0 0 1-8-8v-48a8 8 0 0 1 16 0v48a8 8 0 0 1-8 8zM784 792a8 8 0 0 1-8-8v-32a8 8 0 0 1 16 0v32a8 8 0 0 1-8 8zM912 792a8 8 0 0 1-8-8v-32a8 8 0 0 1 16 0v32a8 8 0 0 1-8 8z" fill="#EB7828" p-id="4616"></path></svg>