<?xml version="1.0" standalone="no"?><!DOCTYPE svg PUBLIC "-//W3C//DTD SVG 1.1//EN" "http://www.w3.org/Graphics/SVG/1.1/DTD/svg11.dtd"><svg t="1569417076239" class="icon" viewBox="0 0 1024 1024" version="1.1" xmlns="http://www.w3.org/2000/svg" p-id="7521" xmlns:xlink="http://www.w3.org/1999/xlink" width="200" height="200"><defs><style type="text/css"></style></defs><path d="M367.978481 479.996472a111.961548 111.961548 0 0 0 111.984125-111.984125c0-61.850909-50.110638-112.006703-111.984125-112.006703-61.862198 0-111.984125 50.155793-111.984125 112.006703 0 61.839621 50.121927 111.984125 111.984125 111.984125z m0-191.998589c44.105038 0 79.991886 35.898137 79.991886 80.003175 0 44.105038-35.886848 79.991886-79.991886 79.991887-44.105038 0-79.980598-35.886848-79.980598-79.991887 0-44.116327 35.875559-80.003175 79.980598-80.003175z" p-id="7522"></path><path d="M1007.981303 832.001411l-143.998942-0.011289V607.999294 223.990828c0-47.186859-24.790034-64.007055-47.999647-64.007056H191.998589V15.99612a16.007408 16.007408 0 0 0-32.003528 0v143.987652H15.99612a16.007408 16.007408 0 0 0 0 32.003528h143.987652v623.984125a48.056091 48.056091 0 0 0 47.999648 47.999648H831.978834V1007.970014a15.984831 15.984831 0 1 0 31.992239 0V863.982361l143.998941 0.011289a15.99612 15.99612 0 0 0 0.011289-31.992239zM191.998589 191.9873h623.984125c14.438276 0 16.007408 22.374248 16.007408 32.003528v345.378459L667.298953 404.678117a16.018697 16.018697 0 0 0-21.313108-1.174027L191.998589 766.707441V191.9873z m15.996119 640.002822a16.029986 16.029986 0 0 1-15.996119-16.007408v-8.308499L654.802337 437.437989l177.187785 177.176497v217.375636H207.994708z" p-id="7523"></path></svg>