<?xml version="1.0" standalone="no"?><!DOCTYPE svg PUBLIC "-//W3C//DTD SVG 1.1//EN" "http://www.w3.org/Graphics/SVG/1.1/DTD/svg11.dtd"><svg t="1569417058080" class="icon" viewBox="0 0 1024 1024" version="1.1" xmlns="http://www.w3.org/2000/svg" p-id="7251" xmlns:xlink="http://www.w3.org/1999/xlink" width="200" height="200"><defs><style type="text/css"></style></defs><path d="M526.439412 633.535557l-32.214629 10.452259a15.994439 15.994439 0 1 0 9.876594 30.431198l32.214629-10.452258a16.005727 16.005727 0 0 0-9.876594-30.431199zM209.259638 769.223033c1.636693 0 3.295961-0.248326 4.943941-0.77884l32.214629-10.452259a16.005727 16.005727 0 0 0-9.876595-30.442486l-32.214629 10.463547a15.994439 15.994439 0 0 0 4.932654 31.210038zM112.627039 800.568521c1.636693 0 3.295961-0.248326 4.94394-0.790127l32.214629-10.452259a15.994439 15.994439 0 1 0-9.876594-30.431198l-32.214629 10.452259a15.994439 15.994439 0 0 0 4.932654 31.221325zM305.892237 737.877544c1.636693 0 3.295961-0.248326 4.943941-0.77884l32.214629-10.440971a16.005727 16.005727 0 0 0-9.865307-30.442486l-32.214629 10.440971a15.983152 15.983152 0 0 0 4.921366 31.221326zM917.947613 761.050856l-30.295748-15.147873a15.983152 15.983152 0 1 0-14.301309 28.613904l30.295748 15.147874a15.994439 15.994439 0 0 0 14.301309-28.613905zM736.229564 670.186188l-30.295748-15.147874a15.983152 15.983152 0 1 0-14.301309 28.613905l30.295748 15.147874a15.994439 15.994439 0 0 0 14.301309-28.613905zM827.082945 715.618522l-30.295748-15.147874a15.983152 15.983152 0 1 0-14.301309 28.613905l30.295748 15.147874a15.994439 15.994439 0 0 0 14.301309-28.613905zM645.364896 624.765142l-30.01356-15.012424a16.197615 16.197615 0 0 0-3.239523-1.264204c-0.214463-0.056438-0.417639-0.067725-0.632102-0.112875a14.380321 14.380321 0 0 0-2.415533-0.395064c-0.428926-0.033863-0.857853 0.011288-1.286779 0.011287-0.598239 0.011288-1.173904-0.011288-1.772143 0.067726-0.970728 0.112875-1.918881 0.327339-2.855747 0.632102l-0.169313 0.033862h-0.022575l-0.1806 0.067725-11.930926 3.871625a15.983152 15.983152 0 1 0 9.887881 30.419911l5.880807-1.907593 24.437516 12.213114a15.994439 15.994439 0 0 0 14.312597-28.625192z" p-id="7252"></path><path d="M1023.869855 207.972859c0-1.207766-0.169313-2.38167-0.417639-3.510424-0.04515-0.237038-0.146738-0.451501-0.214463-0.68854a15.644525 15.644525 0 0 0-1.33193-3.341111c-0.158026-0.270901-0.270901-0.553089-0.440214-0.812702-0.722402-1.173904-1.580255-2.257507-2.573558-3.205661-0.180601-0.169313-0.361201-0.293476-0.553089-0.451501a15.62195 15.62195 0 0 0-3.126648-2.133344c-0.158026-0.079013-0.259613-0.214463-0.417639-0.282189L614.854685 1.568968a15.949289 15.949289 0 0 0-11.863201-0.790128L11.050498 192.75726c-0.146738 0.04515-0.259613 0.146738-0.406351 0.203175a15.633238 15.633238 0 0 0-3.75875 1.885019c-0.158026 0.112875-0.282188 0.237038-0.428926 0.349914a15.407487 15.407487 0 0 0-2.663859 2.550983c-0.214463 0.248326-0.428926 0.485364-0.620814 0.744977a16.073452 16.073452 0 0 0-2.020469 3.566862c-0.0903 0.214463-0.124163 0.440214-0.203176 0.654677a16.344353 16.344353 0 0 0-0.790127 3.566861c-0.022575 0.214463-0.124163 0.406351-0.135451 0.620815-0.011288 0.13545 0.033863 0.270901 0.033863 0.406351 0 0.237038-0.056438 0.440214-0.056438 0.665965v607.924137c0 0.282188 0.067725 0.553089 0.079013 0.835278 0.022575 0.383776 0.011288 0.767552 0.067725 1.162616 0.033863 0.282188 0.0903 0.564377 0.13545 0.835278 0.079013 0.451501 0.203176 0.86914 0.327339 1.309354v0.011287c0.067725 0.259613 0.0903 0.530514 0.169313 0.77884l0.04515 0.090301 0.293476 0.767552c0.169313 0.428926 0.372489 0.835278 0.575664 1.241629a16.874867 16.874867 0 0 0 1.320642 2.24622l0.406352 0.507939c0.327339 0.417639 0.654677 0.82399 1.015878 1.207766 0.293476 0.304763 0.620815 0.586952 0.936865 0.857853 0.395064 0.361201 0.77884 0.722402 1.207767 1.038454l0.259613 0.191888c0.372489 0.248326 0.77884 0.462789 1.173904 0.699827 0.361201 0.214463 0.677252 0.462789 1.049741 0.643389l399.962566 191.97842a15.949289 15.949289 0 0 0 11.851913 0.812703l591.929698-191.97842c0.248326-0.0903 0.474077-0.225751 0.722402-0.316051 0.440214-0.169313 0.857853-0.361201 1.275492-0.564377 0.541802-0.259613 1.061028-0.530514 1.55768-0.846565 0.372489-0.237038 0.711115-0.485364 1.072316-0.744977 0.474077-0.361201 0.948153-0.722402 1.377079-1.140042a18.206796 18.206796 0 0 0 1.997894-2.280082c0.270901-0.372489 0.507939-0.767552 0.744978-1.173904 0.270901-0.474077 0.553089-0.959441 0.77884-1.456092a14.335171 14.335171 0 0 0 0.519226-1.309354 13.906245 13.906245 0 0 0 0.756265-2.957335c0.0903-0.620815 0.169313-1.230341 0.191888-1.862443 0-0.203176 0.056438-0.383776 0.056438-0.586952V207.972859zM63.424667 800.512084a16.005727 16.005727 0 0 0-20.15954-10.282946l-11.276249 3.657162V233.403678l367.951113 176.616083v264.545991l-2.359095 0.756265a15.994439 15.994439 0 0 0-10.282946 20.148253 15.802551 15.802551 0 0 0 12.642041 10.655434v276.318892L57.747036 818.210941c5.327717-3.9845 7.856125-11.005348 5.677631-17.698857z m368.526777-102.705294l7.731963-2.505833a15.960577 15.960577 0 1 0-7.720675-30.905275V411.577441l159.978254-51.888805v10.926335a15.983152 15.983152 0 1 0 31.988878 0v-21.299581l367.9624-119.331835v568.033983l-13.364443-6.682221a15.983152 15.983152 0 0 0-21.457607 7.156298 15.915426 15.915426 0 0 0 1.478667 16.592678L431.951444 985.876007V697.80679zM591.929698 37.993848v27.85764a15.983152 15.983152 0 1 0 31.988878 0V41.413971l340.985188 163.669278-356.720013 115.697249-0.259614-0.022575c-3.578149 0-6.840247 1.207766-9.515393 3.194373l-181.311698 58.808064L58.96609 210.862468 591.929698 37.993848z" p-id="7253"></path><path d="M607.924137 285.03287c8.838141 0 15.994439-7.167586 15.994439-15.994439v-33.862609a15.983152 15.983152 0 1 0-31.988878 0v33.862609c0 8.826853 7.156298 15.994439 15.994439 15.994439zM607.924137 183.445042c8.838141 0 15.994439-7.167586 15.994439-15.994439v-33.862609a15.983152 15.983152 0 1 0-31.988878 0v33.862609c0 8.826853 7.156298 15.994439 15.994439 15.994439zM607.924137 589.785066c8.838141 0 15.994439-7.156298 15.994439-15.994439v-33.862609a15.983152 15.983152 0 1 0-31.988878 0v33.862609c0 8.838141 7.156298 15.994439 15.994439 15.994439zM607.924137 488.208526c8.838141 0 15.994439-7.167586 15.994439-15.994439v-33.86261a15.983152 15.983152 0 1 0-31.988878 0v33.86261c0 8.826853 7.156298 15.994439 15.994439 15.994439z" p-id="7254"></path></svg>