<?xml version="1.0" standalone="no"?><!DOCTYPE svg PUBLIC "-//W3C//DTD SVG 1.1//EN" "http://www.w3.org/Graphics/SVG/1.1/DTD/svg11.dtd"><svg t="1569417037188" class="icon" viewBox="0 0 1024 1024" version="1.1" xmlns="http://www.w3.org/2000/svg" p-id="5013" xmlns:xlink="http://www.w3.org/1999/xlink" width="200" height="200"><defs><style type="text/css"></style></defs><path d="M336 960H209.1l-1.1-33.39C208 794.83 344.11 688 512 688s304 106.83 304 238.61L814.9 960H336z" fill="#FFFFFF" p-id="5014"></path><path d="M822.64 968H201.36L200 926.61c0-66.24 32.71-128.4 92.1-175C350.92 705.43 429 680 512 680s161.08 25.43 219.9 71.59c59.39 46.62 92.1 108.78 92.1 175v0.26z m-605.8-16h590.32l0.84-25.52C807.9 799.38 675.16 696 512 696S216.1 799.38 216 926.48z" p-id="5015"></path><path d="M560 608h-96v90s0 86 48 86 48-86 48-86z" fill="#FFCEBF" p-id="5016"></path><path d="M512 792c-16.46 0-38.44-8.47-49.71-48.85A188.19 188.19 0 0 1 456 698v-98h112v98a188.19 188.19 0 0 1-6.29 45.15C550.44 783.53 528.46 792 512 792z m-40-176v82c0 0.78 0.55 78 40 78 15.88 0 27.42-12.5 34.29-37.15A173.86 173.86 0 0 0 552 698v-82z" fill="#222222" p-id="5017"></path><path d="M432 832l-16-144 48-16 48 112-80 48z" fill="#FFFFFF" p-id="5018"></path><path d="M432 840a8 8 0 0 1-7.95-7.12l-16-144a8 8 0 0 1 5.42-8.47l48-16a8 8 0 0 1 9.88 4.44l48 112a8 8 0 0 1-3.23 10l-80 48A8 8 0 0 1 432 840z m-7.33-146.46l13.9 125.19 63.33-38-42.35-98.81z" fill="#222222" p-id="5019"></path><path d="M592 832l16-144-48-16-48 112 80 48z" fill="#FFFFFF" p-id="5020"></path><path d="M592 840a8 8 0 0 1-4.12-1.14l-80-48a8 8 0 0 1-3.23-10l48-112a8 8 0 0 1 9.88-4.44l48 16a8 8 0 0 1 5.42 8.47l-16 144a8 8 0 0 1-8 7.12z m-69.9-59.27l63.33 38 13.9-125.19-34.88-11.62z" fill="#222222" p-id="5021"></path><path d="M720 960l-16-48 48-144-80-48-96 240H464L352 720l-80 48 48 144-16 48" fill="#231E37" p-id="5022"></path><path d="M720 968a8 8 0 0 1-7.59-5.47l-16-48a8 8 0 0 1 0-5.06l46-137.91-66.44-39.87L583.43 963a8 8 0 0 1-7.43 5H464a8 8 0 0 1-7.25-4.62l-108.25-232-66.88 40.13 46 137.91a8 8 0 0 1 0 5.06l-16 48a8 8 0 0 1-15.18-5.06L311.57 912l-47.16-141.47a8 8 0 0 1 3.47-9.39l80-48a8 8 0 0 1 11.37 3.48L469.09 952h101.49l94-235a8 8 0 0 1 11.55-3.89l80 48a8 8 0 0 1 3.47 9.39L712.43 912l15.16 45.47A8 8 0 0 1 720 968z" fill="#222222" p-id="5023"></path><path d="M251.81 395.81m-68.19 0a68.19 68.19 0 1 0 136.38 0 68.19 68.19 0 1 0-136.38 0Z" fill="#222222" p-id="5024"></path><path d="M741.85 395.84m-58.15 0a58.15 58.15 0 1 0 116.3 0 58.15 58.15 0 1 0-116.3 0Z" fill="#FFCEBF" p-id="5025"></path><path d="M741.85 462A66.15 66.15 0 1 1 808 395.84 66.23 66.23 0 0 1 741.85 462z m0-116.29A50.15 50.15 0 1 0 792 395.84a50.2 50.2 0 0 0-50.15-50.14z" fill="#222222" p-id="5026"></path><path d="M742 296.6l0.84 111.7c0 136.84-104.13 247.77-232.59 247.77S277.69 545.14 277.69 408.3l0.84-111.7S288 80 512 80s230 216.6 230 216.6z" fill="#FFCEBF" p-id="5027"></path><path d="M510.29 664.07c-64.37 0-124.85-26.67-170.29-75.07s-70.31-112.48-70.31-180.7l0.85-112c0.1-2.29 2.8-56.69 33.75-111.86 18.29-32.63 42.68-58.64 72.48-77.32C413.88 83.8 459.38 72 512 72s98 11.8 134.72 35.08c29.54 18.71 53.53 44.74 71.33 77.39 30.08 55.2 31.92 109.62 32 111.91v0.16l0.84 111.7c0 68.28-25 132.45-70.29 180.74s-105.95 75.09-170.31 75.09zM286.53 296.83l-0.84 111.53c0 132.15 100.75 239.71 224.6 239.71S734.88 540.51 734.88 408.3L734 296.76c-0.08-2.12-2.33-54.09-30.32-105.14C666 122.86 601.51 88 512 88s-154.65 34.89-193.47 103.71c-28.59 50.67-31.84 102.29-32 105.12z" fill="#222222" p-id="5028"></path><path d="M298.84 453.99a37 21.15 0 1 0 74 0 37 21.15 0 1 0-74 0Z" fill="#FFA096" p-id="5029"></path><path d="M647.73 453.99a37 21.15 0 1 0 74 0 37 21.15 0 1 0-74 0Z" fill="#FFA096" p-id="5030"></path><path d="M407.66 356.19l-8.2 8.2a31.89 31.89 0 0 0-8-3.34v-11.59a8 8 0 0 0-16 0v11.59a31.82 31.82 0 0 0-8 3.34l-8.2-8.2a8 8 0 0 0-11.32 11.32l8.21 8.2a31.72 31.72 0 1 0 54.71 0l8.2-8.2a8 8 0 0 0-11.31-11.32zM672.72 356.19a8 8 0 0 0-11.32 0l-8.2 8.2a31.67 31.67 0 0 0-8-3.34v-11.59a8 8 0 1 0-16 0v11.59a31.89 31.89 0 0 0-8 3.34l-8.2-8.2a8 8 0 0 0-11.31 11.32l8.2 8.2a31.72 31.72 0 1 0 54.72 0l8.2-8.2a8 8 0 0 0-0.09-11.32z" fill="#222222" p-id="5031"></path><path d="M446.85 560.92s21.15 10.57 63.44 10.57 63.43-10.57 63.43-10.57" fill="#FFCEBF" p-id="5032"></path><path d="M510.29 579.49c-43.68 0-66.09-11-67-11.42a8 8 0 0 1 7.13-14.32c0.28 0.13 20.48 9.74 59.89 9.74s59.69-9.65 59.89-9.75a8 8 0 0 1 7.12 14.33c-0.95 0.47-23.32 11.42-67.03 11.42z" fill="#222222" p-id="5033"></path><path d="M704 144m-112 0a112 112 0 1 0 224 0 112 112 0 1 0-224 0Z" fill="#AA6E50" p-id="5034"></path><path d="M704 264a120 120 0 1 1 120-120 120.13 120.13 0 0 1-120 120z m0-224a104 104 0 1 0 104 104A104.11 104.11 0 0 0 704 40z" fill="#222222" p-id="5035"></path><path d="M758.86 325.71c0-148.47-98.67-257.14-246.86-257.14S265.14 177.24 265.14 325.71c0 0 298.29-10.28 360-102.85 72 92.57 133.72 102.85 133.72 102.85z" fill="#AA6E50" p-id="5036"></path><path d="M758.86 333.71a8.38 8.38 0 0 1-1.32-0.1c-2.57-0.43-62-11.21-132.26-97.72-30.72 36-98.55 63.23-201.92 81-81.88 14.08-157.19 16.8-157.94 16.83a8 8 0 0 1-8.28-8c0-37.57 6.14-73.1 18.24-105.6 11.94-32.08 29.37-60.38 51.8-84.14a233.51 233.51 0 0 1 80.66-55.49C439.63 67.27 474.67 60.57 512 60.57s72.37 6.7 104.16 19.91A233.51 233.51 0 0 1 696.82 136c22.43 23.76 39.86 52.06 51.8 84.14 12.1 32.5 18.24 68 18.24 105.6a8 8 0 0 1-8 8zM512 76.57c-137.94 0-235.08 98.57-238.75 240.76 21.7-1.12 82.55-5.06 147.56-16.24 105.35-18.13 173.7-46.71 197.68-82.67a8 8 0 0 1 13-0.47c36 46.29 69.13 71 90.58 83.56a165.41 165.41 0 0 0 28.64 13.57C746.05 174.1 649.21 76.57 512 76.57zM512 592c-20.5 0-38 9.34-44.87 22.48C352.78 605.16 264 541.23 264 464a8 8 0 0 0-16 0c0 45.41 26.23 87.87 73.86 119.55 39 26 88.74 42.16 142.41 46.75 2.55 14.88 22.94 8.21 47.73 8.21 26.51 0 48 7.63 48-11.63S538.51 592 512 592zM512 968a8 8 0 0 1-8-8V784a8 8 0 0 1 16 0v176a8 8 0 0 1-8 8z" fill="#222222" p-id="5037"></path></svg>