<?xml version="1.0" standalone="no"?><!DOCTYPE svg PUBLIC "-//W3C//DTD SVG 1.1//EN" "http://www.w3.org/Graphics/SVG/1.1/DTD/svg11.dtd"><svg t="1569417023234" class="icon" viewBox="0 0 1024 1024" version="1.1" xmlns="http://www.w3.org/2000/svg" p-id="4754" xmlns:xlink="http://www.w3.org/1999/xlink" width="200" height="200"><defs><style type="text/css"></style></defs><path d="M512 768v208H209.1l-1.1-33.39C208 810.83 344.11 704 512 704s304 106.83 304 238.61L814.9 976H512v-32" fill="#FFA041" p-id="4755"></path><path d="M814.9 984H209.1a8 8 0 0 1-8-7.74l-1.1-33.39v-0.26c0-66.24 32.71-128.4 92.1-175C350.92 721.43 429 696 512 696s161.08 25.43 219.9 71.59c59.39 46.62 92.1 108.78 92.1 175v0.26l-1.11 33.39a8 8 0 0 1-7.99 7.76zM520 968h287.16l0.84-25.52C807.9 815.38 675.16 712 512 712S216.1 815.38 216 942.48l0.84 25.52H504V768a8 8 0 0 1 16 0z" fill="#222222" p-id="4756"></path><path d="M560 624h-96v90s0 54 48 54 48-54 48-54z" fill="#FFCEBF" p-id="4757"></path><path d="M512 776c-29.09 0-42.87-17.27-49.31-31.75A82.54 82.54 0 0 1 456 714v-98h112v98a82.54 82.54 0 0 1-6.69 30.25C554.87 758.73 541.09 776 512 776z m-40-144v82c0 1.86 0.69 46 40 46 16.69 0 28-7.28 34.69-22.25A67.2 67.2 0 0 0 552 714v-82z" fill="#222222" p-id="4758"></path><path d="M448 816l-48-96 48-16 64 64-64 48z" fill="#FFA041" p-id="4759"></path><path d="M448 824a8.24 8.24 0 0 1-1.84-0.21 8 8 0 0 1-5.32-4.21l-48-96a8 8 0 0 1 4.63-11.17l48-16a8 8 0 0 1 8.19 1.93l64 64a8 8 0 0 1-0.86 12.06l-64 48a8 8 0 0 1-4.8 1.6z m-36.72-99.33l39.59 79.18 48.95-36.72-54-54z" fill="#222222" p-id="4760"></path><path d="M576 816l48-96-48-16-64 64 64 48z" fill="#FFA041" p-id="4761"></path><path d="M576 824a8 8 0 0 1-4.8-1.6l-64-48a8 8 0 0 1-0.86-12.06l64-64a8 8 0 0 1 8.19-1.93l48 16a8 8 0 0 1 4.63 11.17l-48 96a8 8 0 0 1-5.32 4.21 8.24 8.24 0 0 1-1.84 0.21z m-51.82-56.87l49 36.72 39.59-79.18-34.56-11.52z" fill="#222222" p-id="4762"></path><path d="M864 576l-64-48v-64l64 48v64z" fill="#FFBE00" p-id="4763"></path><path d="M872 592l-80-60v-84l80 60z m-64-68l48 36v-44l-48-36z" fill="#222222" p-id="4764"></path><path d="M864 640l-64-48v-64l64 48v64z" fill="#FFBE00" p-id="4765"></path><path d="M872 656l-80-60v-84l80 60z m-64-68l48 36v-44l-48-36z" fill="#222222" p-id="4766"></path><path d="M864 704l-64-48v-64l64 48v64z" fill="#FFBE00" p-id="4767"></path><path d="M872 720l-80-60v-84l80 60z m-64-68l48 36v-44l-48-36z" fill="#222222" p-id="4768"></path><path d="M864 544l64-48v-64l-64 48v64z" fill="#FFBE00" p-id="4769"></path><path d="M856 560v-84l80-60v84z m16-76v44l48-36v-44z" fill="#222222" p-id="4770"></path><path d="M864 608l64-48v-64l-64 48v64z" fill="#FFBE00" p-id="4771"></path><path d="M856 624v-84l80-60v84z m16-76v44l48-36v-44z" fill="#222222" p-id="4772"></path><path d="M864 672l64-48v-64l-64 48v64z" fill="#FFBE00" p-id="4773"></path><path d="M856 688v-84l80-60v84z m16-76v44l48-36v-44z" fill="#222222" p-id="4774"></path><path d="M864 968a8 8 0 0 1-8-8V656a8 8 0 0 1 16 0v304a8 8 0 0 1-8 8z" p-id="4775"></path><path d="M800 784h160v48H800z" fill="#FFCEBF" p-id="4776"></path><path d="M968 840H792v-64h176z m-160-16h144v-32H808z" fill="#222222" p-id="4777"></path><path d="M800 832h160v48H800z" fill="#FFCEBF" p-id="4778"></path><path d="M968 888H792v-64h176z m-160-16h144v-32H808z" fill="#222222" p-id="4779"></path><path d="M800 880h160v48H800z" fill="#FFCEBF" p-id="4780"></path><path d="M968 936H792v-64h176z m-160-16h144v-32H808z" fill="#222222" p-id="4781"></path><path d="M800 928h160v48H800z" fill="#FFCEBF" p-id="4782"></path><path d="M968 984H792v-64h176z m-160-16h144v-32H808z" fill="#222222" p-id="4783"></path><path d="M800 784v96h-48v-96z" fill="#FFCEBF" p-id="4784"></path><path d="M808 888h-64V776h64z m-48-16h32v-80h-32z" fill="#222222" p-id="4785"></path><path d="M282.14 411.81m-58.14 0a58.14 58.14 0 1 0 116.28 0 58.14 58.14 0 1 0-116.28 0Z" fill="#FFCEBF" p-id="4786"></path><path d="M282.14 478a66.15 66.15 0 1 1 66.15-66.14A66.21 66.21 0 0 1 282.14 478z m0-116.29a50.15 50.15 0 1 0 50.15 50.15 50.2 50.2 0 0 0-50.15-50.2z" fill="#222222" p-id="4787"></path><path d="M741.86 411.81m-58.14 0a58.14 58.14 0 1 0 116.28 0 58.14 58.14 0 1 0-116.28 0Z" fill="#FFCEBF" p-id="4788"></path><path d="M741.86 478A66.15 66.15 0 1 1 808 411.81 66.22 66.22 0 0 1 741.86 478z m0-116.29a50.15 50.15 0 1 0 50.14 50.1 50.21 50.21 0 0 0-50.14-50.15z" fill="#222222" p-id="4789"></path><path d="M746.3 312.57l0.84 111.69C747.14 561.08 643 672 514.57 672S282 561.08 282 424.26l0.84-111.69S322.57 96 514.57 96 746.3 312.57 746.3 312.57z" fill="#FFCEBF" p-id="4790"></path><path d="M514.57 680c-64.35 0-124.83-26.67-170.28-75.09S274 492.48 274 424.26l0.85-112.45 0.12-0.68c0.42-2.27 10.61-56.28 45-111.09 20.31-32.41 44.88-58.28 73-76.88C428.26 99.83 469.18 88 514.57 88s86.31 11.83 121.62 35.16c28.14 18.6 52.71 44.47 73 76.88 34.36 54.81 44.54 108.82 45 111.09l0.12 0.68v0.7l0.84 111.69c0 68.28-25 132.43-70.28 180.71S578.93 680 514.57 680zM290.84 313.38L290 424.32C290 556.45 390.74 664 514.57 664s224.57-107.55 224.57-239.74l-0.83-110.88c-1.26-6.21-12-56.13-42.91-105.26C651.94 139 591.1 104 514.57 104s-137.36 35-180.82 104.12c-30.91 49.13-41.66 99.05-42.91 105.26z" fill="#222222" p-id="4791"></path><path d="M303.14 469.95a37 21.14 0 1 0 74 0 37 21.14 0 1 0-74 0Z" fill="#FFA096" p-id="4792"></path><path d="M652 469.95a37 21.14 0 1 0 74 0 37 21.14 0 1 0-74 0Z" fill="#FFA096" p-id="4793"></path><path d="M683.71 378.57h-16.58a31.7 31.7 0 0 0-51.4 0h-16.59a8 8 0 0 0 0 16h10.69c-0.07 0.85-0.12 1.71-0.12 2.57a31.72 31.72 0 1 0 63.43 0c0-0.86 0-1.72-0.11-2.57h10.68a8 8 0 0 0 0-16zM430 378.57h-16.58a31.71 31.71 0 0 0-51.41 0h-16.58a8 8 0 0 0 0 16h10.68c-0.07 0.85-0.11 1.71-0.11 2.57a31.72 31.72 0 1 0 63.43 0c0-0.86-0.05-1.72-0.11-2.57H430a8 8 0 0 0 0-16z" fill="#222222" p-id="4794"></path><path d="M430 576.86s28.19 10.57 84.57 10.57 84.57-10.57 84.57-10.57" fill="#FFCEBF" p-id="4795"></path><path d="M514.57 595.43c-57.17 0-86.17-10.63-87.38-11.08a8 8 0 0 1 5.6-15c0.27 0.1 27.87 10.07 81.78 10.07 54.3 0 81.5-10 81.76-10.06a8 8 0 0 1 5.62 15c-1.2 0.44-30.2 11.07-87.38 11.07z" fill="#222222" p-id="4796"></path><path d="M753.55 307.44c0-65.12-484.3-65.12-484.3 0 0-133.73 108.42-242.14 242.15-242.14s242.15 108.41 242.15 242.14z" fill="#F0D2AA" p-id="4797"></path><path d="M753.55 315.44a8 8 0 0 1-8-8c0-7.55-18.09-19.61-69.08-28.75-43.47-7.8-102.09-12.09-165.07-12.09s-121.6 4.29-165.06 12.09c-51 9.14-69.09 21.2-69.09 28.75a8 8 0 1 1-16 0 250.15 250.15 0 0 1 500.3 0 8 8 0 0 1-8 8zM511.4 73.3c-120.92 0-220.73 92.13-232.9 209.89 13.54-8.19 35.13-14.9 65-20.25 44.37-8 104-12.34 167.89-12.34s123.53 4.4 167.9 12.34c29.88 5.35 51.47 12.06 65 20.25C732.13 165.43 632.32 73.3 511.4 73.3z" fill="#222222" p-id="4798"></path><path d="M512 176c-220.91 0-400 64.47-400 144 0 39.21 41.38 74.76 112 100.73-1.41-4.17 0-8.42 0-12.73 0-57.44 128.94-104 288-104s288 46.56 288 104c0 4.31 1.41 8.56 0 12.73 70.62-26 112-61.52 112-100.73 0-79.53-179.09-144-400-144z" fill="#DCBE82" p-id="4799"></path><path d="M800 428.73a8 8 0 0 1-7.58-10.56c0.37-1.1 0.17-2.9-0.06-5A46.82 46.82 0 0 1 792 408c0-23.81-28.82-47.87-79.07-66C659.38 322.65 588 312 512 312s-147.38 10.65-200.93 30C260.82 360.13 232 384.19 232 408a46.82 46.82 0 0 1-0.36 5.19c-0.23 2.08-0.43 3.88-0.06 5a8 8 0 0 1-10.34 10.07C145.64 400.43 104 362 104 320s43.49-80.92 122.45-109.35C302.84 183.15 404.26 168 512 168s209.16 15.15 285.55 42.65C876.51 239.08 920 277.91 920 320s-41.64 80.43-117.24 108.24a8 8 0 0 1-2.76 0.49zM512 296c77.83 0 151.12 11 206.36 30.94C776.17 347.81 808 376.6 808 408v1.08c29.43-11.75 52.65-25.09 69.13-39.73C895 353.53 904 336.93 904 320c0-34.33-40.77-68.7-111.87-94.3C717.43 198.81 617.94 184 512 184s-205.43 14.81-280.13 41.7C160.77 251.3 120 285.67 120 320c0 16.93 9 33.53 26.83 49.35 16.48 14.64 39.7 28 69.13 39.73V408c0-31.4 31.83-60.19 89.64-81.06C360.88 307 434.17 296 512 296z" fill="#222222" p-id="4800"></path><path d="M864 784h96v192h-96" fill="#FFCEBF" p-id="4801"></path><path d="M968 984H864v-16h88V792h-88v-16h104v208z" fill="#222222" p-id="4802"></path><path d="M720 976H304V752l64-32v192h288V720l64 32v224z" fill="#6ED228" p-id="4803"></path><path d="M728 984H296V747.06l80-40V904h272V707.06l80 40z m-416-16h400V756.94l-48-24V920H360V732.94l-48 24z" fill="#222222" p-id="4804"></path></svg>